<svg width="422" height="85" viewBox="0 0 422 85" fill="none" xmlns="http://www.w3.org/2000/svg">
<path d="M24.64 13C27.1467 13 29.36 13.28 31.28 13.84C33.2267 14.3733 34.8933 15.12 36.28 16.08C37.6667 17.04 38.8 18.16 39.68 19.44C40.56 20.6933 41.2133 22.04 41.64 23.48C42.0667 24.92 42.28 26.3867 42.28 27.88C42.28 29.7733 41.9333 31.6267 41.24 33.44C40.5733 35.2267 39.52 36.84 38.08 38.28C36.6667 39.72 34.84 40.8667 32.6 41.72C30.3867 42.5733 27.7333 43 24.64 43H0.8C0.8 41.2933 0.8 39.6 0.8 37.92C0.8 36.2133 0.8 34.52 0.8 32.84C0.8 31.1333 0.8 29.44 0.8 27.76C0.8 26.0533 0.8 24.3467 0.8 22.64C0.8 21.04 0.8 19.44 0.8 17.84C0.8 16.2133 0.8 14.6 0.8 13H24.64ZM21.44 24.52H16.68C16.68 24.52 16.6667 24.52 16.64 24.52C16.64 24.52 16.64 24.5333 16.64 24.56C16.64 24.56 16.64 24.5733 16.64 24.6V31.4C16.64 31.4267 16.64 31.4533 16.64 31.48C16.6667 31.48 16.68 31.48 16.68 31.48H21.52C22.1067 31.48 22.6267 31.3867 23.08 31.2C23.56 31.0133 23.96 30.76 24.28 30.44C24.6 30.12 24.84 29.7467 25 29.32C25.1867 28.8933 25.28 28.4533 25.28 28C25.28 27.36 25.12 26.7733 24.8 26.24C24.5067 25.7067 24.08 25.2933 23.52 25C22.96 24.68 22.2667 24.52 21.44 24.52ZM74.8231 13C75.3031 14.6533 75.7698 16.32 76.2231 18C76.7031 19.6533 77.1698 21.32 77.6231 23C78.1031 24.6533 78.5831 26.32 79.0631 28C79.5431 29.6533 80.0098 31.32 80.4631 33C80.9431 34.6533 81.4098 36.32 81.8631 38C82.3431 39.6533 82.8231 41.32 83.3031 43H65.4631L64.7831 39.08C64.6765 39.08 64.5831 39.08 64.5031 39.08C64.4231 39.08 64.3298 39.08 64.2231 39.08H59.8231C59.7431 39.08 59.6631 39.08 59.5831 39.08C59.5031 39.08 59.4231 39.08 59.3431 39.08L58.6631 43H41.5831C42.0631 41.32 42.5298 39.6533 42.9831 38C43.4631 36.32 43.9298 34.6533 44.3831 33C44.8631 31.32 45.3298 29.6533 45.7831 28C46.2631 26.32 46.7298 24.6533 47.1831 23C47.6631 21.32 48.1298 19.6533 48.5831 18C49.0631 16.32 49.5298 14.6533 49.9831 13H74.8231ZM59.8231 36.24C59.8231 36.2667 59.8231 36.28 59.8231 36.28C59.8231 36.28 59.8365 36.28 59.8631 36.28H64.2631C64.2898 36.28 64.3031 36.28 64.3031 36.28C64.3031 36.2533 64.3031 36.24 64.3031 36.24C64.3031 36.24 64.2498 35.92 64.1431 35.28C64.0365 34.6133 63.8898 33.7867 63.7031 32.8C63.5431 31.7867 63.3698 30.72 63.1831 29.6C62.9965 28.4533 62.8231 27.3733 62.6631 26.36C62.5031 25.3467 62.3565 24.52 62.2231 23.88C62.1165 23.24 62.0631 22.92 62.0631 22.92C62.0631 22.92 62.0498 22.92 62.0231 22.92C62.0231 22.92 61.9698 23.24 61.8631 23.88C61.7565 24.52 61.6098 25.3467 61.4231 26.36C61.2631 27.3733 61.0898 28.4533 60.9031 29.6C60.7165 30.72 60.5431 31.7867 60.3831 32.8C60.2231 33.7867 60.0898 34.6133 59.9831 35.28C59.8765 35.92 59.8231 36.24 59.8231 36.24ZM108.618 13H124.018C124.018 13.9867 124.018 14.9867 124.018 16C124.018 16.9867 124.018 17.9867 124.018 19C124.018 19.9867 124.018 20.9867 124.018 22C124.018 22.9867 124.018 23.9867 124.018 25C124.018 25.9867 124.018 26.9867 124.018 28C124.018 30.5067 124.018 33.0133 124.018 35.52C124.018 38 124.018 40.4933 124.018 43H105.498L100.458 28.6C100.458 28.5733 100.445 28.56 100.418 28.56C100.418 28.56 100.405 28.56 100.378 28.56C100.378 28.56 100.378 28.5733 100.378 28.6C100.378 30.9467 100.378 33.3467 100.378 35.8C100.378 38.2533 100.378 40.6533 100.378 43H84.9781C84.9781 41 84.9781 39 84.9781 37C84.9781 35 84.9781 33 84.9781 31C84.9781 29 84.9781 27 84.9781 25C84.9781 23 84.9781 21 84.9781 19C84.9781 17 84.9781 15 84.9781 13H102.898L108.538 29.6C108.565 29.6 108.578 29.6 108.578 29.6C108.605 29.6 108.618 29.6 108.618 29.6C108.618 29.5733 108.618 29.56 108.618 29.56V13ZM148.043 11.8C152.79 11.8 156.71 12.3867 159.803 13.56C162.896 14.7333 165.27 16.3333 166.923 18.36C168.576 20.36 169.616 22.6267 170.043 25.16L152.763 29.24C153.056 28.2267 153.07 27.3467 152.803 26.6C152.536 25.8533 152.003 25.2667 151.203 24.84C150.403 24.4133 149.336 24.2 148.003 24.2C146.75 24.2 145.75 24.3733 145.003 24.72C144.283 25.0667 143.763 25.5067 143.443 26.04C143.15 26.5467 143.003 27.0933 143.003 27.68C143.003 28.1067 143.096 28.52 143.283 28.92C143.47 29.2933 143.763 29.64 144.163 29.96C144.563 30.28 145.083 30.5333 145.723 30.72C146.363 30.9067 147.123 31 148.003 31C149.363 31 150.416 30.8533 151.163 30.56C151.91 30.24 152.443 29.8 152.763 29.24C152.336 30.8133 151.91 32.4 151.483 34C151.056 35.6 150.616 37.2133 150.163 38.84C149.736 40.44 149.31 42.0267 148.883 43.6C148.163 43.7333 147.456 43.8267 146.763 43.88C146.096 43.96 145.296 44 144.363 44C142.336 44 140.47 43.8133 138.763 43.44C137.083 43.0667 135.563 42.5467 134.203 41.88C132.843 41.1867 131.643 40.36 130.603 39.4C129.59 38.44 128.736 37.3733 128.043 36.2C127.376 35 126.87 33.72 126.523 32.36C126.176 30.9733 126.003 29.5333 126.003 28.04C126.003 26.8133 126.123 25.6267 126.363 24.48C126.63 23.3067 127.03 22.1867 127.563 21.12C128.123 20.0267 128.83 19.0133 129.683 18.08C130.536 17.12 131.536 16.2667 132.683 15.52C133.856 14.7467 135.203 14.08 136.723 13.52C138.243 12.96 139.936 12.5333 141.803 12.24C143.696 11.9467 145.776 11.8 148.043 11.8ZM152.763 43C152.763 41.4533 152.763 39.92 152.763 38.4C152.763 36.88 152.763 35.36 152.763 33.84C152.763 32.2933 152.763 30.76 152.763 29.24C154.656 29.24 156.536 29.24 158.403 29.24C160.296 29.24 162.19 29.24 164.083 29.24C165.976 29.24 167.856 29.24 169.723 29.24V43H152.763ZM195.999 13H211.399C211.399 13.9867 211.399 14.9867 211.399 16C211.399 16.9867 211.399 17.9867 211.399 19C211.399 19.9867 211.399 20.9867 211.399 22C211.399 22.9867 211.399 23.9867 211.399 25C211.399 25.9867 211.399 26.9867 211.399 28C211.399 30.5067 211.399 33.0133 211.399 35.52C211.399 38 211.399 40.4933 211.399 43H192.879L187.839 28.6C187.839 28.5733 187.826 28.56 187.799 28.56C187.799 28.56 187.786 28.56 187.759 28.56C187.759 28.56 187.759 28.5733 187.759 28.6C187.759 30.9467 187.759 33.3467 187.759 35.8C187.759 38.2533 187.759 40.6533 187.759 43H172.359C172.359 41 172.359 39 172.359 37C172.359 35 172.359 33 172.359 31C172.359 29 172.359 27 172.359 25C172.359 23 172.359 21 172.359 19C172.359 17 172.359 15 172.359 13H190.279L195.919 29.6C195.946 29.6 195.959 29.6 195.959 29.6C195.986 29.6 195.999 29.6 195.999 29.6C195.999 29.5733 195.999 29.56 195.999 29.56V13ZM235.424 11.8C240.171 11.8 244.091 12.3867 247.184 13.56C250.278 14.7333 252.651 16.3333 254.304 18.36C255.958 20.36 256.998 22.6267 257.424 25.16L240.144 29.24C240.438 28.2267 240.451 27.3467 240.184 26.6C239.918 25.8533 239.384 25.2667 238.584 24.84C237.784 24.4133 236.718 24.2 235.384 24.2C234.131 24.2 233.131 24.3733 232.384 24.72C231.664 25.0667 231.144 25.5067 230.824 26.04C230.531 26.5467 230.384 27.0933 230.384 27.68C230.384 28.1067 230.478 28.52 230.664 28.92C230.851 29.2933 231.144 29.64 231.544 29.96C231.944 30.28 232.464 30.5333 233.104 30.72C233.744 30.9067 234.504 31 235.384 31C236.744 31 237.798 30.8533 238.544 30.56C239.291 30.24 239.824 29.8 240.144 29.24C239.718 30.8133 239.291 32.4 238.864 34C238.438 35.6 237.998 37.2133 237.544 38.84C237.118 40.44 236.691 42.0267 236.264 43.6C235.544 43.7333 234.838 43.8267 234.144 43.88C233.478 43.96 232.678 44 231.744 44C229.718 44 227.851 43.8133 226.144 43.44C224.464 43.0667 222.944 42.5467 221.584 41.88C220.224 41.1867 219.024 40.36 217.984 39.4C216.971 38.44 216.118 37.3733 215.424 36.2C214.758 35 214.251 33.72 213.904 32.36C213.558 30.9733 213.384 29.5333 213.384 28.04C213.384 26.8133 213.504 25.6267 213.744 24.48C214.011 23.3067 214.411 22.1867 214.944 21.12C215.504 20.0267 216.211 19.0133 217.064 18.08C217.918 17.12 218.918 16.2667 220.064 15.52C221.238 14.7467 222.584 14.08 224.104 13.52C225.624 12.96 227.318 12.5333 229.184 12.24C231.078 11.9467 233.158 11.8 235.424 11.8ZM240.144 43C240.144 41.4533 240.144 39.92 240.144 38.4C240.144 36.88 240.144 35.36 240.144 33.84C240.144 32.2933 240.144 30.76 240.144 29.24C242.038 29.24 243.918 29.24 245.784 29.24C247.678 29.24 249.571 29.24 251.464 29.24C253.358 29.24 255.238 29.24 257.104 29.24V43H240.144ZM259.741 13H276.341C276.341 15.9067 276.341 18.6267 276.341 21.16C276.341 23.6933 276.341 26.2267 276.341 28.76C276.341 29.16 276.421 29.5067 276.581 29.8C276.767 30.0933 276.994 30.3467 277.261 30.56C277.554 30.7467 277.874 30.8933 278.221 31C278.594 31.1067 278.967 31.16 279.341 31.16C280.114 31.16 280.807 30.96 281.421 30.56C282.034 30.16 282.341 29.5733 282.341 28.8C282.341 27.52 282.341 26.2533 282.341 25C282.341 23.7467 282.341 22.48 282.341 21.2C282.341 19.92 282.341 18.6 282.341 17.24C282.341 15.88 282.341 14.4667 282.341 13H298.941C298.941 15.0267 298.941 17.1067 298.941 19.24C298.941 21.3733 298.941 23.52 298.941 25.68C298.941 27.8133 298.941 29.8933 298.941 31.92C298.941 33.9733 298.381 35.7733 297.261 37.32C296.167 38.84 294.687 40.12 292.821 41.16C290.954 42.1733 288.847 42.9333 286.501 43.44C284.181 43.9467 281.794 44.2 279.341 44.2C277.394 44.2 275.461 44.04 273.541 43.72C271.647 43.4 269.861 42.9067 268.181 42.24C266.527 41.5733 265.061 40.76 263.781 39.8C262.527 38.8133 261.541 37.6667 260.821 36.36C260.101 35.0267 259.741 33.5467 259.741 31.92C259.741 30.9067 259.741 29.8667 259.741 28.8C259.741 27.7067 259.741 26.6267 259.741 25.56C259.741 24.1467 259.741 22.7333 259.741 21.32C259.741 19.9067 259.741 18.5067 259.741 17.12C259.741 15.7067 259.741 14.3333 259.741 13ZM326.002 13H344.162C342.695 15.6667 341.229 18.3333 339.762 21C338.295 23.6667 336.815 26.3333 335.322 29C333.855 31.6667 332.389 34.3333 330.922 37V43H314.322V36.96C313.389 35.36 312.455 33.76 311.522 32.16C310.615 30.56 309.695 28.96 308.762 27.36C307.855 25.76 306.935 24.1733 306.002 22.6C305.069 21 304.135 19.4 303.202 17.8C302.295 16.2 301.375 14.6 300.442 13H319.642C319.989 14.28 320.322 15.56 320.642 16.84C320.989 18.12 321.335 19.4 321.682 20.68C322.029 21.96 322.362 23.24 322.682 24.52C322.682 24.52 322.682 24.5333 322.682 24.56C322.709 24.56 322.722 24.56 322.722 24.56C322.749 24.5333 322.762 24.52 322.762 24.52C323.029 23.56 323.295 22.6 323.562 21.64C323.829 20.68 324.095 19.72 324.362 18.76C324.655 17.8 324.935 16.84 325.202 15.88C325.469 14.92 325.735 13.96 326.002 13ZM379.317 23.08H361.917C361.89 23.08 361.877 23.08 361.877 23.08V25.28C361.877 25.3067 361.877 25.3333 361.877 25.36C361.903 25.36 361.917 25.36 361.917 25.36H378.717V31H361.917C361.917 31 361.903 31 361.877 31C361.877 31 361.877 31.0133 361.877 31.04C361.877 31.04 361.877 31.0533 361.877 31.08V33.32C361.903 33.32 361.917 33.32 361.917 33.32H379.557V43H345.677C345.677 41.4267 345.677 39.8533 345.677 38.28C345.677 36.68 345.677 35.0933 345.677 33.52C345.677 31.9467 345.677 30.3733 345.677 28.8C345.677 27.2 345.677 25.6133 345.677 24.04C345.677 22.44 345.677 20.8533 345.677 19.28C345.677 18.24 345.677 17.2 345.677 16.16C345.677 15.0933 345.677 14.04 345.677 13H379.317V23.08ZM405.507 13H420.907C420.907 13.9867 420.907 14.9867 420.907 16C420.907 16.9867 420.907 17.9867 420.907 19C420.907 19.9867 420.907 20.9867 420.907 22C420.907 22.9867 420.907 23.9867 420.907 25C420.907 25.9867 420.907 26.9867 420.907 28C420.907 30.5067 420.907 33.0133 420.907 35.52C420.907 38 420.907 40.4933 420.907 43H402.387L397.347 28.6C397.347 28.5733 397.334 28.56 397.307 28.56C397.307 28.56 397.294 28.56 397.267 28.56C397.267 28.56 397.267 28.5733 397.267 28.6C397.267 30.9467 397.267 33.3467 397.267 35.8C397.267 38.2533 397.267 40.6533 397.267 43H381.867C381.867 41 381.867 39 381.867 37C381.867 35 381.867 33 381.867 31C381.867 29 381.867 27 381.867 25C381.867 23 381.867 21 381.867 19C381.867 17 381.867 15 381.867 13H399.787L405.427 29.6C405.454 29.6 405.467 29.6 405.467 29.6C405.494 29.6 405.507 29.6 405.507 29.6C405.507 29.5733 405.507 29.56 405.507 29.56V13Z" fill="#B40011"/>
<path d="M235.44 11.8C240.187 11.8 244.107 12.3867 247.2 13.56C250.293 14.7333 252.667 16.3333 254.32 18.36C255.973 20.36 257.013 22.6267 257.44 25.16L240.16 29.24C240.453 28.2267 240.467 27.3467 240.2 26.6C239.933 25.8533 239.4 25.2667 238.6 24.84C237.8 24.4133 236.733 24.2 235.4 24.2C234.147 24.2 233.147 24.3733 232.4 24.72C231.68 25.0667 231.16 25.5067 230.84 26.04C230.547 26.5467 230.4 27.0933 230.4 27.68C230.4 28.1067 230.493 28.52 230.68 28.92C230.867 29.2933 231.16 29.64 231.56 29.96C231.96 30.28 232.48 30.5333 233.12 30.72C233.76 30.9067 234.52 31 235.4 31C236.76 31 237.813 30.8533 238.56 30.56C239.307 30.24 239.84 29.8 240.16 29.24C239.733 30.8133 239.307 32.4 238.88 34C238.453 35.6 238.013 37.2133 237.56 38.84C237.133 40.44 236.707 42.0267 236.28 43.6C235.56 43.7333 234.853 43.8267 234.16 43.88C233.493 43.96 232.693 44 231.76 44C229.733 44 227.867 43.8133 226.16 43.44C224.48 43.0667 222.96 42.5467 221.6 41.88C220.24 41.1867 219.04 40.36 218 39.4C216.987 38.44 216.133 37.3733 215.44 36.2C214.773 35 214.267 33.72 213.92 32.36C213.573 30.9733 213.4 29.5333 213.4 28.04C213.4 26.8133 213.52 25.6267 213.76 24.48C214.027 23.3067 214.427 22.1867 214.96 21.12C215.52 20.0267 216.227 19.0133 217.08 18.08C217.933 17.12 218.933 16.2667 220.08 15.52C221.253 14.7467 222.6 14.08 224.12 13.52C225.64 12.96 227.333 12.5333 229.2 12.24C231.093 11.9467 233.173 11.8 235.44 11.8ZM240.16 43C240.16 41.4533 240.16 39.92 240.16 38.4C240.16 36.88 240.16 35.36 240.16 33.84C240.16 32.2933 240.16 30.76 240.16 29.24C242.053 29.24 243.933 29.24 245.8 29.24C247.693 29.24 249.587 29.24 251.48 29.24C253.373 29.24 255.253 29.24 257.12 29.24V43H240.16Z" fill="black"/>
<path d="M26.12 45C28.6 45 30.76 45.3467 32.6 46.04C34.4667 46.7067 36 47.6267 37.2 48.8C38.4267 49.9467 39.3467 51.2533 39.96 52.72C40.5733 54.1867 40.88 55.7067 40.88 57.28C40.88 58.96 40.56 60.56 39.92 62.08C39.3067 63.5733 38.3733 64.9067 37.12 66.08C35.8933 67.2533 34.36 68.1867 32.52 68.88C30.68 69.5467 28.5467 69.88 26.12 69.88H17.52C17.52 69.88 17.5067 69.8933 17.48 69.92C17.48 69.92 17.4667 69.92 17.44 69.92C17.44 69.92 17.44 69.9333 17.44 69.96V75H0.8C0.8 73.2133 0.8 71.4267 0.8 69.64C0.8 67.8533 0.8 66.0667 0.8 64.28C0.8 62.4933 0.8 60.7067 0.8 58.92C0.8 57.1333 0.8 55.3467 0.8 53.56C0.8 52.12 0.8 50.6933 0.8 49.28C0.8 47.84 0.8 46.4133 0.8 45H26.12ZM21.2 61.2C22 61.2 22.6667 61.0667 23.2 60.8C23.76 60.5067 24.1733 60.1467 24.44 59.72C24.7067 59.2667 24.84 58.8133 24.84 58.36C24.84 57.88 24.7067 57.44 24.44 57.04C24.1733 56.6133 23.7733 56.2667 23.24 56C22.7067 55.7333 22.0267 55.6 21.2 55.6H17.52C17.4933 55.6 17.4667 55.6133 17.44 55.64C17.44 55.64 17.44 55.6533 17.44 55.68V61.16C17.4667 61.16 17.48 61.1733 17.48 61.2C17.5067 61.2 17.52 61.2 17.52 61.2H21.2ZM65.0109 45H81.6109C81.6109 46.68 81.6109 48.36 81.6109 50.04C81.6109 51.72 81.6109 53.4 81.6109 55.08C81.6109 56.76 81.6109 58.4533 81.6109 60.16C81.6109 62.6133 81.6109 65.08 81.6109 67.56C81.6109 70.04 81.6109 72.52 81.6109 75H65.0109C65.0109 73.3733 65.0109 71.7467 65.0109 70.12C65.0109 68.4933 65.0109 66.8667 65.0109 65.24C65.0109 65.2133 64.9976 65.2 64.9709 65.2C64.9709 65.1733 64.9576 65.16 64.9309 65.16H59.4509C59.4243 65.16 59.4109 65.1733 59.4109 65.2C59.4109 65.2 59.4109 65.2133 59.4109 65.24C59.4109 66.8667 59.4109 68.4933 59.4109 70.12C59.4109 71.7467 59.4109 73.3733 59.4109 75H42.8109C42.8109 73.4 42.8109 71.8 42.8109 70.2C42.8109 68.6 42.8109 67 42.8109 65.4C42.8109 63.8 42.8109 62.2 42.8109 60.6C42.8109 59 42.8109 57.4 42.8109 55.8C42.8109 54.2 42.8109 52.6 42.8109 51C42.8109 49.9867 42.8109 48.9867 42.8109 48C42.8109 46.9867 42.8109 45.9867 42.8109 45H59.4109C59.4109 46.28 59.4109 47.5733 59.4109 48.88C59.4109 50.1867 59.4109 51.4933 59.4109 52.8C59.4109 54.08 59.4109 55.3733 59.4109 56.68C59.4109 56.7067 59.4109 56.7333 59.4109 56.76C59.4109 56.76 59.4243 56.76 59.4509 56.76H64.9309C64.9576 56.76 64.9709 56.76 64.9709 56.76C64.9976 56.7333 65.0109 56.7067 65.0109 56.68C65.0109 54.7333 65.0109 52.7867 65.0109 50.84C65.0109 48.8933 65.0109 46.9467 65.0109 45ZM84.0016 45H100.602C100.602 47.9067 100.602 50.6267 100.602 53.16C100.602 55.6933 100.602 58.2267 100.602 60.76C100.602 61.16 100.682 61.5067 100.842 61.8C101.028 62.0933 101.255 62.3467 101.522 62.56C101.815 62.7467 102.135 62.8933 102.482 63C102.855 63.1067 103.228 63.16 103.602 63.16C104.375 63.16 105.068 62.96 105.682 62.56C106.295 62.16 106.602 61.5733 106.602 60.8C106.602 59.52 106.602 58.2533 106.602 57C106.602 55.7467 106.602 54.48 106.602 53.2C106.602 51.92 106.602 50.6 106.602 49.24C106.602 47.88 106.602 46.4667 106.602 45H123.202C123.202 47.0267 123.202 49.1067 123.202 51.24C123.202 53.3733 123.202 55.52 123.202 57.68C123.202 59.8133 123.202 61.8933 123.202 63.92C123.202 65.9733 122.642 67.7733 121.522 69.32C120.428 70.84 118.948 72.12 117.082 73.16C115.215 74.1733 113.108 74.9333 110.762 75.44C108.442 75.9467 106.055 76.2 103.602 76.2C101.655 76.2 99.7216 76.04 97.8016 75.72C95.9082 75.4 94.1216 74.9067 92.4416 74.24C90.7882 73.5733 89.3216 72.76 88.0416 71.8C86.7882 70.8133 85.8016 69.6667 85.0816 68.36C84.3616 67.0267 84.0016 65.5467 84.0016 63.92C84.0016 62.9067 84.0016 61.8667 84.0016 60.8C84.0016 59.7067 84.0016 58.6267 84.0016 57.56C84.0016 56.1467 84.0016 54.7333 84.0016 53.32C84.0016 51.9067 84.0016 50.5067 84.0016 49.12C84.0016 47.7067 84.0016 46.3333 84.0016 45ZM147.183 76.2C145.076 76.2 143.129 76.0667 141.343 75.8C139.556 75.5333 137.903 75.1467 136.383 74.64C134.889 74.1333 133.543 73.52 132.343 72.8C131.169 72.08 130.129 71.2667 129.223 70.36C128.316 69.4533 127.556 68.4667 126.943 67.4C126.356 66.3067 125.916 65.1467 125.623 63.92C125.329 62.6933 125.183 61.4 125.183 60.04C125.183 57.8267 125.543 55.84 126.263 54.08C126.983 52.32 127.996 50.8 129.303 49.52C130.636 48.24 132.209 47.1733 134.023 46.32C135.863 45.4667 137.889 44.84 140.103 44.44C142.316 44.0133 144.676 43.8 147.183 43.8C151.609 43.8 155.369 44.3333 158.463 45.4C161.556 46.4667 163.996 48 165.783 50C167.596 52 168.729 54.4267 169.183 57.28L152.183 60.04C152.183 59.4267 152.049 58.9067 151.783 58.48C151.516 58.0267 151.156 57.6667 150.703 57.4C150.249 57.1333 149.716 56.9333 149.103 56.8C148.516 56.6667 147.876 56.6 147.183 56.6C146.223 56.6 145.369 56.7333 144.623 57C143.876 57.24 143.276 57.6133 142.823 58.12C142.396 58.6 142.183 59.2133 142.183 59.96C142.183 60.4133 142.263 60.8267 142.423 61.2C142.583 61.5733 142.809 61.9067 143.103 62.2C143.396 62.4667 143.743 62.6933 144.143 62.88C144.569 63.04 145.036 63.1733 145.543 63.28C146.049 63.36 146.596 63.4 147.183 63.4C148.596 63.4 149.783 63.12 150.743 62.56C151.703 61.9733 152.183 61.1333 152.183 60.04L169.183 61.76C168.889 63.7333 168.236 65.5867 167.223 67.32C166.236 69.0533 164.849 70.5867 163.063 71.92C161.303 73.2533 159.103 74.2933 156.463 75.04C153.849 75.8133 150.756 76.2 147.183 76.2Z" fill="black"/>
<rect width="12" height="12" transform="translate(311 45)" fill="#B40011"/>
<path d="M312.968 53.26C315.16 53.38 316.644 53.44 317.42 53.44C317.604 53.44 317.748 53.388 317.852 53.284C317.964 53.172 318.02 53.024 318.02 52.84V51.76H315.26C314.42 51.76 313.808 51.572 313.424 51.196C313.048 50.812 312.86 50.2 312.86 49.36V49C312.86 48.16 313.048 47.552 313.424 47.176C313.808 46.792 314.42 46.6 315.26 46.6H319.472V48.28H315.74C315.26 48.28 315.02 48.52 315.02 49V49.24C315.02 49.72 315.26 49.96 315.74 49.96H317.9C318.684 49.96 319.26 50.144 319.628 50.512C319.996 50.88 320.18 51.456 320.18 52.24V52.84C320.18 53.624 319.996 54.2 319.628 54.568C319.26 54.936 318.684 55.12 317.9 55.12C317.492 55.12 317.06 55.112 316.604 55.096L315.5 55.048C314.684 55.008 313.84 54.952 312.968 54.88V53.26Z" fill="#FECB07"/>
<rect width="12" height="12" transform="translate(325 45)" fill="#B40011"/>
<path d="M332.62 48.88C332.62 48.4 332.38 48.16 331.9 48.16H329.86C329.38 48.16 329.14 48.4 329.14 48.88V52.72C329.14 53.2 329.38 53.44 329.86 53.44H331.9C332.38 53.44 332.62 53.2 332.62 52.72V48.88ZM334.78 52.72C334.78 53.56 334.588 54.172 334.204 54.556C333.828 54.932 333.22 55.12 332.38 55.12H329.38C328.54 55.12 327.928 54.932 327.544 54.556C327.168 54.172 326.98 53.56 326.98 52.72V48.88C326.98 48.04 327.168 47.432 327.544 47.056C327.928 46.672 328.54 46.48 329.38 46.48H332.38C333.22 46.48 333.828 46.672 334.204 47.056C334.588 47.432 334.78 48.04 334.78 48.88V52.72Z" fill="#FECB07"/>
<rect width="12" height="12" transform="translate(353 45)" fill="#B40011"/>
<path d="M359.8 55H357.64V48.28H355.12V46.6H362.32V48.28H359.8V55Z" fill="#FECB07"/>
<rect width="12" height="12" transform="translate(367 45)" fill="#B40011"/>
<path d="M373.84 46.6L375.28 52L376.54 46.6H378.88L376.6 55H374.32L372.88 49.78L371.44 55H369.16L366.88 46.6H369.22L370.48 52L371.92 46.6H373.84Z" fill="#FECB07"/>
<rect width="12" height="12" transform="translate(409 45)" fill="#B40011"/>
<path d="M418.38 55H411.72V46.6H418.38V48.28H413.88V49.9H417.42V51.58H413.88V53.32H418.38V55Z" fill="#FECB07"/>
<rect width="12" height="12" transform="translate(395 45)" fill="#B40011"/>
<path d="M397.22 46.6H402.26C403.1 46.6 403.708 46.792 404.084 47.176C404.468 47.552 404.66 48.16 404.66 49V50.08C404.66 50.744 404.548 51.26 404.324 51.628C404.108 51.996 403.76 52.24 403.28 52.36L404.78 55H402.44L401.06 52.48H399.38V55H397.22V46.6ZM402.5 49C402.5 48.52 402.26 48.28 401.78 48.28H399.38V50.8H401.78C402.26 50.8 402.5 50.56 402.5 50.08V49Z" fill="#FECB07"/>
<rect width="12" height="12" transform="translate(381 45)" fill="#B40011"/>
<path d="M384.72 55H382.38L385.56 46.6H387.96L391.14 55H388.8L388.26 53.5H385.26L384.72 55ZM385.8 51.94H387.72L386.76 49.12L385.8 51.94Z" fill="#FECB07"/>
<rect width="12" height="12" transform="translate(339 45)" fill="#B40011"/>
<path d="M343.88 55H341.72V46.6H348.38V48.28H343.88V50.26H347.42V51.94H343.88V55Z" fill="#FECB07"/>
<rect width="12" height="12" transform="translate(311 59)" fill="black"/>
<path d="M320.38 69H313.72V60.6H320.38V62.28H315.88V63.9H319.42V65.58H315.88V67.32H320.38V69Z" fill="#FECB07"/>
<rect width="12" height="12" transform="translate(325 59)" fill="black"/>
<path d="M334.54 69H332.26L329.38 63.96V69H327.22V60.6H329.5L332.38 65.64V60.6H334.54V69Z" fill="#FECB07"/>
<rect width="12" height="12" transform="translate(353 59)" fill="black"/>
<path d="M360.68 69H356.36V67.32H357.44V62.28H356.36V60.6H360.68V62.28H359.6V67.32H360.68V69Z" fill="#FECB07"/>
<rect width="12" height="12" transform="translate(367 59)" fill="black"/>
<path d="M376.54 69H374.26L371.38 63.96V69H369.22V60.6H371.5L374.38 65.64V60.6H376.54V69Z" fill="#FECB07"/>
<rect width="12" height="12" transform="translate(409 59)" fill="black"/>
<path d="M411.22 60.6H416.26C417.1 60.6 417.708 60.792 418.084 61.176C418.468 61.552 418.66 62.16 418.66 63V64.08C418.66 64.744 418.548 65.26 418.324 65.628C418.108 65.996 417.76 66.24 417.28 66.36L418.78 69H416.44L415.06 66.48H413.38V69H411.22V60.6ZM416.5 63C416.5 62.52 416.26 62.28 415.78 62.28H413.38V64.8H415.78C416.26 64.8 416.5 64.56 416.5 64.08V63Z" fill="#FECB07"/>
<rect width="12" height="12" transform="translate(395 59)" fill="black"/>
<path d="M404.38 69H397.72V60.6H404.38V62.28H399.88V63.9H403.42V65.58H399.88V67.32H404.38V69Z" fill="#FECB07"/>
<rect width="12" height="12" transform="translate(381 59)" fill="black"/>
<path d="M390.38 69H383.72V60.6H390.38V62.28H385.88V63.9H389.42V65.58H385.88V67.32H390.38V69Z" fill="#FECB07"/>
<rect width="12" height="12" transform="translate(339 59)" fill="black"/>
<path d="M348.42 68.82C346.548 69.02 344.828 69.12 343.26 69.12C342.476 69.12 341.9 68.936 341.532 68.568C341.164 68.2 340.98 67.624 340.98 66.84V63C340.98 62.16 341.168 61.552 341.544 61.176C341.928 60.792 342.54 60.6 343.38 60.6H347.7V62.28H343.86C343.38 62.28 343.14 62.52 343.14 63V66.84C343.14 67.024 343.192 67.172 343.296 67.284C343.408 67.388 343.556 67.44 343.74 67.44C344.66 67.44 345.5 67.42 346.26 67.38V65.64H344.7V64.2H348.42V68.82Z" fill="#FECB07"/>
<path d="M263.631 24.0192L252.575 33.2052L250.269 19.3697L263.631 24.0192Z" fill="#FECB07"/>
<ellipse cx="238.457" cy="28.3926" rx="16.6121" ry="16.1404" transform="rotate(-30 238.457 28.3926)" fill="#F5F5F5"/>
<ellipse cx="240.235" cy="19.29" rx="2.76868" ry="2.69007" transform="rotate(-30 240.235 19.29)" fill="black"/>
<ellipse cx="232.58" cy="28.6651" rx="5" ry="2.5" transform="rotate(-30 232.58 28.6651)" fill="#FECB07"/>
<ellipse cx="230.58" cy="23.6651" rx="5" ry="2.5" transform="rotate(-30 230.58 23.6651)" fill="#FECB07"/>
</svg>
